<svg xmlns="http://www.w3.org/2000/svg" width="24" height="24" viewBox="0 0 24 24" class="icon" role="img">

<g id="Layer_11">
	<path stroke="#000000" stroke-width="0.5" stroke-miterlimit="10" d="M3.06,10.94v-0.06c0-5.04,4.01-9.13,8.93-9.13
		c4.93,0,8.93,4.1,8.93,9.13v0.06c0.76,0.23,1.32,0.95,1.32,1.81v2.48c0,1.04-0.83,1.88-1.84,1.88v0.07c0,0.19-0.12,0.35-0.29,0.41
		c-1.17,1.94-3,3.4-5.18,4.08l-1.83,0.57c-0.05,0.02-0.1,0.02-0.15,0.02c-0.22,0-0.42-0.14-0.49-0.37
		c-0.08-0.27,0.07-0.56,0.34-0.65l1.83-0.57c1.79-0.56,3.32-1.71,4.36-3.24c-0.05-0.07-0.08-0.16-0.08-0.25v-6.4
		c0-0.24,0.19-0.43,0.42-0.43h0.56c-0.26-4.22-3.71-7.58-7.9-7.58s-7.64,3.35-7.9,7.58h0.58c0.23,0,0.42,0.19,0.42,0.43v6.4
		c0,0.24-0.19,0.43-0.42,0.43H4.02c-0.23,0-0.42-0.19-0.42-0.43v-0.07c-1.02,0-1.84-0.84-1.84-1.88l0-2.48
		C1.75,11.89,2.3,11.17,3.06,10.94L3.06,10.94z"/>
	<circle stroke="#000000" stroke-width="0.5" stroke-miterlimit="10" cx="12" cy="20.5" r="2"/>
</g>
</svg>
