<svg xmlns="http://www.w3.org/2000/svg" width="24" height="24" viewBox="0 0 24 24" class="icon" role="img">
<path fill-rule="evenodd" d="M3.36,6.49l0.01-0.45c0-0.44-0.35-0.79-0.78-0.8c-0.44,0-0.79,0.34-0.8,0.78L1.75,9.31
		c0,0.27,0.13,0.52,0.35,0.67c0.22,0.15,0.5,0.17,0.75,0.07l3.02-1.29c0.4-0.17,0.59-0.64,0.42-1.04C6.12,7.31,5.65,7.13,5.25,7.3
		L4.53,7.61c1.08-1.84,2.84-3.29,5.05-3.93c4.59-1.34,9.41,1.31,10.74,5.9c1.34,4.59-1.31,9.41-5.9,10.74
		c-4.59,1.34-9.41-1.31-10.74-5.9c-0.06-0.22-0.12-0.44-0.17-0.67c-0.09-0.43-0.51-0.7-0.93-0.61s-0.7,0.51-0.61,0.93
		c0.06,0.26,0.12,0.53,0.2,0.79c1.58,5.43,7.27,8.55,12.7,6.97c5.43-1.58,8.55-7.27,6.97-12.7c-1.58-5.43-7.27-8.55-12.7-6.97
		C6.65,2.88,4.65,4.47,3.36,6.49L3.36,6.49z M11.58,12.67l4.11,2.38c0.38,0.22,0.86,0.09,1.08-0.29c0.22-0.38,0.09-0.86-0.29-1.08
		l-3.7-2.14V7.27c0-0.44-0.35-0.79-0.79-0.79s-0.79,0.35-0.79,0.79V12C11.21,12.28,11.36,12.53,11.58,12.67L11.58,12.67z"/>
</svg>