<svg xmlns="http://www.w3.org/2000/svg" width="24" height="24" viewBox="0 0 24 24" class="icon" role="img">
  <path stroke="#000000" stroke-width="0.25" stroke-miterlimit="10" d="M21.57,8.58L13.8,2.27c-0.95-0.77-2.33-0.77-3.28,0L2.75,8.58
	C2.48,8.8,2.32,9.13,2.32,9.48v11.88c0,0.64,0.52,1.16,1.16,1.16h5.21c0.64,0,1.16-0.52,1.16-1.16v-7.52h4.63v7.52
	c0,0.64,0.52,1.16,1.16,1.16h5.21c0.64,0,1.16-0.52,1.16-1.16V9.48C22,9.13,21.84,8.8,21.57,8.58L21.57,8.58z M20.84,21.37h-5.21
	v-7.53c0-0.64-0.52-1.15-1.16-1.15H9.84c-0.64,0-1.16,0.51-1.16,1.15v7.53H3.48V9.48l7.77-6.31c0.53-0.43,1.3-0.43,1.82,0l7.77,6.31
	L20.84,21.37L20.84,21.37z"/>
</svg>

