<svg xmlns="http://www.w3.org/2000/svg" width="24" height="24" viewBox="0 0 24 24" class="icon" role="img">
<path d="M15.27,12.53c1.46-0.95,2.43-2.48,2.67-4.2c0.24-1.72-0.27-3.46-1.41-4.77C15.39,2.25,13.74,1.5,12,1.5
		S8.61,2.25,7.47,3.56C6.33,4.87,5.82,6.61,6.06,8.33c0.24,1.72,1.22,3.25,2.67,4.2c-2.1,0.69-3.93,2.02-5.23,3.81
		c-1.3,1.79-2,3.95-2,6.16H3c0-2.39,0.95-4.67,2.64-6.36C7.33,14.45,9.61,13.5,12,13.5s4.67,0.95,6.36,2.64
		C20.05,17.83,21,20.11,21,22.5h1.5c0-2.21-0.7-4.37-2-6.16C19.2,14.55,17.37,13.22,15.27,12.53L15.27,12.53z M7.5,7.5
		c0-1.19,0.47-2.34,1.32-3.18C9.66,3.48,10.81,3.01,12,3.01s2.34,0.47,3.18,1.32c0.84,0.84,1.32,1.99,1.32,3.18
		s-0.47,2.34-1.32,3.18C14.34,11.53,13.19,12,12,12s-2.34-0.47-3.18-1.32C7.98,9.84,7.5,8.7,7.5,7.5z"/>
</svg>
